<svg id="Grupo_796" data-name="Grupo 796" xmlns="http://www.w3.org/2000/svg" width="262.293" height="251.938" viewBox="0 0 262.293 251.938">
  <g id="Floor" transform="translate(9.828 250.362)">
    <g id="Grupo_806" data-name="Grupo 806">
      <path id="Caminho_515" data-name="Caminho 515" d="M312.29,461.759c0,.088-56.521.159-126.227.159-69.73,0-126.238-.071-126.238-.159s56.508-.159,126.238-.159C255.769,461.6,312.29,461.671,312.29,461.759Z" transform="translate(-59.825 -461.6)" fill="#263238"/>
    </g>
  </g>
  <g id="Grupo_898" data-name="Grupo 898">
    <g id="Background_Complete" data-name="Background Complete" transform="translate(0 5.142)">
      <g id="Grupo_801" data-name="Grupo 801" transform="translate(0 65.314)">
        <path id="Caminho_504" data-name="Caminho 504" d="M48.176,213.28l40.542-4.3L84.293,169.6l-40.586,3.907.552,3.055,1.212-.43c.8-.039,1.16.476,1.273,1.27,0,.018,0,.035.007.052.091.8-.1,1.555-.887,1.724l-1.53-.093.312,2.771s2.693-.618,2.816,1.1c0,0-.117,1.587-2.535,1.41l.26,2.311s2.689-.735,2.839,1.041c.127,1.507-1.438,1.618-2.535,1.663l.274,2.438s2.677-.551,2.64,1.267-2.331,1.479-2.331,1.479l.349,3.1s2.475-1.085,2.683.765-1.783,1.714-2.421,1.566l.265,2.36s2.525-1.08,2.643,1.3c.088,1.784-2.379,1.057-2.379,1.057L47.582,208s2.478-1.057,2.677.713c.141,1.259-1.377,1.861-2.456,1.257Z" transform="translate(-43.707 -166.737)" fill="#f5f5f5"/>
        <rect id="Retângulo_193" data-name="Retângulo 193" width="24.322" height="6.658" transform="translate(10.594 0.884) rotate(-2.083)" fill="#e0e0e0"/>
        <g id="Grupo_796-2" data-name="Grupo 796" transform="translate(10.121 13.204)">
          <path id="Caminho_505" data-name="Caminho 505" d="M85.8,186.574a6.033,6.033,0,0,1-1,.124l-2.729.219c-2.3.172-5.49.387-9.009.6s-6.708.4-9.017.512l-2.735.119a6.08,6.08,0,0,1-1.005,0,6.168,6.168,0,0,1,1-.123l2.729-.219c2.3-.172,5.491-.387,9.011-.6s6.706-.4,9.015-.512l2.735-.119A6.236,6.236,0,0,1,85.8,186.574Z" transform="translate(-60.306 -186.559)" fill="#e0e0e0"/>
        </g>
        <g id="Grupo_797" data-name="Grupo 797" transform="translate(11.091 18.141)">
          <path id="Caminho_506" data-name="Caminho 506" d="M87.389,194.672a6.1,6.1,0,0,1-1,.124l-2.729.219c-2.305.171-5.491.387-9.009.6s-6.709.4-9.017.512l-2.735.119a6.08,6.08,0,0,1-1.005,0,6.086,6.086,0,0,1,1-.124l2.729-.219c2.3-.171,5.491-.387,9.011-.6s6.707-.4,9.016-.512l2.735-.119A6.043,6.043,0,0,1,87.389,194.672Z" transform="translate(-61.897 -194.656)" fill="#e0e0e0"/>
        </g>
        <g id="Grupo_798" data-name="Grupo 798" transform="translate(11.443 23.211)">
          <path id="Caminho_507" data-name="Caminho 507" d="M87.968,202.987a6.114,6.114,0,0,1-1,.124l-2.729.219c-2.3.171-5.49.387-9.009.6s-6.708.4-9.017.512l-2.735.119a6.048,6.048,0,0,1-1.005,0,6.029,6.029,0,0,1,1-.124l2.729-.219c2.3-.171,5.491-.387,9.011-.6s6.706-.4,9.015-.512l2.735-.119A6.1,6.1,0,0,1,87.968,202.987Z" transform="translate(-62.475 -202.971)" fill="#e0e0e0"/>
        </g>
        <g id="Grupo_799" data-name="Grupo 799" transform="translate(12.061 28.281)">
          <path id="Caminho_508" data-name="Caminho 508" d="M88.98,211.3a6.034,6.034,0,0,1-1,.124l-2.729.22c-2.3.171-5.49.387-9.009.6s-6.708.4-9.017.512l-2.735.119a6.082,6.082,0,0,1-1.005,0,6.117,6.117,0,0,1,1-.124l2.728-.22c2.3-.171,5.491-.387,9.011-.6s6.707-.4,9.015-.512l2.735-.119A6.048,6.048,0,0,1,88.98,211.3Z" transform="translate(-63.487 -211.285)" fill="#e0e0e0"/>
        </g>
        <g id="Grupo_800" data-name="Grupo 800" transform="translate(13.471 33.743)">
          <path id="Caminho_509" data-name="Caminho 509" d="M91.293,220.26a6.141,6.141,0,0,1-1,.123l-2.729.219c-2.3.172-5.49.387-9.009.6s-6.708.4-9.017.512l-2.735.119a6.223,6.223,0,0,1-1.005,0,6.015,6.015,0,0,1,1-.124l2.729-.219c2.3-.172,5.491-.387,9.011-.6s6.706-.4,9.015-.512l2.735-.119A6.074,6.074,0,0,1,91.293,220.26Z" transform="translate(-65.801 -220.244)" fill="#e0e0e0"/>
        </g>
      </g>
      <g id="Grupo_805" data-name="Grupo 805" transform="translate(24.467)">
        <path id="Caminho_510" data-name="Caminho 510" d="M95.036,67.341l-.255,40.768h39.628l.649-40.768-3.1.207.292,1.252c-.051.8-.6,1.1-1.4,1.123H130.8c-.808,0-1.534-.27-1.614-1.074l.263-1.51h-2.788s.313,2.744-1.405,2.677c0,0-1.563-.294-1.118-2.677h-2.326s.43,2.754-1.351,2.7c-1.513-.042-1.448-1.609-1.369-2.7h-2.454s.248,2.722-1.554,2.482-1.209-2.482-1.209-2.482h-3.123s.8,2.58-1.06,2.58-1.5-1.964-1.286-2.58h-2.375s.791,2.63-1.583,2.482c-1.783-.112-.784-2.482-.784-2.482h-3.3s.774,2.58-1.007,2.58c-1.267,0-1.7-1.576-.975-2.58Z" transform="translate(-88.107 -61.514)" fill="#fafafa"/>
        <rect id="Retângulo_194" data-name="Retângulo 194" width="19.365" height="5.301" transform="matrix(0.813, -0.582, 0.582, 0.813, 0, 11.264)" fill="#ebebeb"/>
        <rect id="Retângulo_195" data-name="Retângulo 195" width="19.365" height="5.301" transform="matrix(0.813, -0.582, 0.582, 0.813, 35.32, 48.583)" fill="#ebebeb"/>
        <g id="Grupo_802" data-name="Grupo 802" transform="translate(12.287 16.436)">
          <path id="Caminho_511" data-name="Caminho 511" d="M134.448,84.9a1.163,1.163,0,0,1-.309.032l-.888.03-3.265.051c-2.756.029-6.564.046-10.769.046s-8.015-.018-10.771-.046l-3.264-.051-.888-.03a1.158,1.158,0,0,1-.309-.032,1.137,1.137,0,0,1,.309-.032l.888-.029,3.264-.051c2.756-.029,6.564-.047,10.771-.047s8.013.018,10.769.047l3.265.051.888.029A1.143,1.143,0,0,1,134.448,84.9Z" transform="translate(-103.986 -84.74)" fill="#e0e0e0"/>
        </g>
        <g id="Grupo_803" data-name="Grupo 803" transform="translate(12.975 23.771)">
          <path id="Caminho_512" data-name="Caminho 512" d="M134.186,96.929a1.047,1.047,0,0,1-.3.032l-.847.03-3.115.05c-2.63.029-6.264.047-10.277.047s-7.648-.018-10.279-.047l-3.115-.05-.847-.03a1.044,1.044,0,0,1-.3-.032,1.063,1.063,0,0,1,.3-.032l.847-.03,3.115-.051c2.63-.029,6.264-.046,10.279-.046s7.647.018,10.277.046l3.115.051.847.03A1.066,1.066,0,0,1,134.186,96.929Z" transform="translate(-105.115 -96.77)" fill="#e0e0e0"/>
        </g>
        <g id="Grupo_804" data-name="Grupo 804" transform="translate(13.664 30.851)">
          <path id="Caminho_513" data-name="Caminho 513" d="M120.787,108.541a14.151,14.151,0,0,1-2.13.112c-1.316.029-3.133.047-5.141.047s-3.826-.018-5.142-.047a14.142,14.142,0,0,1-2.13-.112,14.143,14.143,0,0,1,2.13-.112c1.316-.029,3.133-.046,5.142-.046s3.825.018,5.141.046A14.152,14.152,0,0,1,120.787,108.541Z" transform="translate(-106.244 -108.382)" fill="#e0e0e0"/>
        </g>
      </g>
    </g>
    <g id="Plant" transform="translate(196.641 211.855)">
      <g id="Grupo_810" data-name="Grupo 810">
        <path id="Caminho_516" data-name="Caminho 516" d="M383.431,412.826c-1.08,1.543-3.179,1.032-4.152.09a7.845,7.845,0,0,1-1.759-3.607c-.855-2.973-1.718-6.092-1.082-9.12a5.071,5.071,0,0,1,1.165-2.48,2.648,2.648,0,0,1,2.508-.835,3.871,3.871,0,0,1,2.191,2.3,21.732,21.732,0,0,1,2.148,9.33,7.54,7.54,0,0,1-1.019,4.319" transform="translate(-370.116 -396.806)" fill="#17813b"/>
        <path id="Caminho_518" data-name="Caminho 518" d="M375.479,435.333a9.359,9.359,0,0,0-5.806-.706,4.827,4.827,0,0,0-2.869,1.281,2.064,2.064,0,0,0-.029,2.863,2.747,2.747,0,0,0,1.808.459c1.535-.018,3.238-.288,4.464.635.7.527,1.165,1.4,2,1.662a1.978,1.978,0,0,0,2.176-.968,3.379,3.379,0,0,0,.246-2.494A3.807,3.807,0,0,0,375.479,435.333Z" transform="translate(-366.21 -411.503)" fill="#17813b"/>
        <path id="Caminho_519" data-name="Caminho 519" d="M392.183,418.216a5.613,5.613,0,0,1-.873-5.165,9.954,9.954,0,0,1,3.059-4.438,16.474,16.474,0,0,1,5.478-3.232,5.845,5.845,0,0,1,2.463-.418,2.587,2.587,0,0,1,2.068,1.251c.576,1.1.024,2.433-.574,3.521a41.717,41.717,0,0,1-3.6,5.479,9.742,9.742,0,0,1-3.957,3.39c-1.644.629-3.351.554-4.222-.585" transform="translate(-375.902 -399.983)" fill="#17813b"/>
        <g id="Grupo_807" data-name="Grupo 807" transform="translate(5.328 25.103)">
          <path id="Caminho_520" data-name="Caminho 520" d="M383.009,452.16a3.366,3.366,0,0,1-.1-.7c-.05-.51-.112-1.151-.186-1.913a27.759,27.759,0,0,0-.43-2.806,21.7,21.7,0,0,0-1.02-3.311,12.21,12.21,0,0,0-1.691-3,6.315,6.315,0,0,0-2.138-1.777,5.978,5.978,0,0,0-1.8-.561,3.319,3.319,0,0,1-.7-.1,3.325,3.325,0,0,1,.71-.011,5.447,5.447,0,0,1,1.877.489,6.3,6.3,0,0,1,2.255,1.793,11.919,11.919,0,0,1,1.752,3.057,20.185,20.185,0,0,1,1.013,3.366,23.814,23.814,0,0,1,.373,2.841c.06.812.084,1.47.095,1.925A3.282,3.282,0,0,1,383.009,452.16Z" transform="translate(-374.948 -437.976)" fill="#263238"/>
        </g>
        <g id="Grupo_808" data-name="Grupo 808" transform="translate(9.673 6.198)">
          <path id="Caminho_521" data-name="Caminho 521" d="M385.659,438.588a1.373,1.373,0,0,1-.019-.325c0-.245,0-.552,0-.93,0-.807,0-1.976-.041-3.418-.071-2.885-.32-6.866-.8-11.243s-1.124-8.316-1.707-11.142c-.138-.709-.277-1.346-.408-1.9s-.231-1.042-.334-1.432l-.217-.9a1.419,1.419,0,0,1-.057-.321,1.359,1.359,0,0,1,.113.3l.269.891c.12.387.243.866.383,1.423s.3,1.191.451,1.9a105.632,105.632,0,0,1,1.8,11.153c.48,4.386.7,8.379.716,11.271.017,1.446-.014,2.616-.051,3.424-.023.378-.042.685-.057.93A1.393,1.393,0,0,1,385.659,438.588Z" transform="translate(-382.075 -406.971)" fill="#263238"/>
        </g>
        <g id="Grupo_809" data-name="Grupo 809" transform="translate(13.224 8.553)">
          <path id="Caminho_522" data-name="Caminho 522" d="M387.912,432.393a6.194,6.194,0,0,1,.007-.971c.036-.624.122-1.527.3-2.632a34.753,34.753,0,0,1,.856-3.835,33.9,33.9,0,0,1,1.6-4.538,24.187,24.187,0,0,1,4.71-7.333,12.035,12.035,0,0,1,1.108-1.03c.17-.143.32-.287.473-.4l.43-.3a6.182,6.182,0,0,1,.818-.524,29.022,29.022,0,0,0-2.681,2.391,25.479,25.479,0,0,0-4.591,7.306,36.19,36.19,0,0,0-1.613,4.5,38.931,38.931,0,0,0-.911,3.8c-.2,1.094-.317,1.987-.387,2.606A6.171,6.171,0,0,1,387.912,432.393Z" transform="translate(-387.898 -410.833)" fill="#263238"/>
        </g>
      </g>
    </g>
    <g id="Notebook" transform="translate(75.459)">
      <g id="Grupo_824" data-name="Grupo 824">
        <g id="Grupo_821" data-name="Grupo 821">
          <path id="Caminho_523" data-name="Caminho 523" d="M305.149,246.808,173.235,230.031,196.213,49.35,331.4,66.542a2.7,2.7,0,0,1,2.337,3.018l-21.88,172.054A6,6,0,0,1,305.149,246.808Z" transform="translate(-169.716 -49.35)" fill="#455a64"/>
          <rect id="Retângulo_196" data-name="Retângulo 196" width="8.859" height="16.484" transform="matrix(0.126, -0.992, 0.992, 0.126, 151.841, 56.261)" fill="#006ffe"/>
          <rect id="Retângulo_197" data-name="Retângulo 197" width="8.859" height="16.484" transform="matrix(0.126, -0.992, 0.992, 0.126, 151.841, 56.261)" opacity="0.3"/>
          <rect id="Retângulo_198" data-name="Retângulo 198" width="128.595" height="173.198" transform="matrix(0.992, 0.126, -0.126, 0.992, 31.564, 5.601)" fill="#e0e0e0"/>
          <rect id="Retângulo_199" data-name="Retângulo 199" width="128.595" height="173.198" transform="matrix(0.992, 0.126, -0.126, 0.992, 26.143, 2.782)" fill="#fafafa"/>
          <g id="Grupo_811" data-name="Grupo 811" transform="translate(10.413 19.787)">
            <line id="Linha_23" data-name="Linha 23" x2="127.12" y2="16.166" transform="translate(17.667)" fill="none" stroke="#e0e0e0" stroke-miterlimit="10" stroke-width="1"/>
            <line id="Linha_24" data-name="Linha 24" x2="127.12" y2="16.166" transform="translate(17.383 8.646)" fill="none" stroke="#e0e0e0" stroke-miterlimit="10" stroke-width="1"/>
            <line id="Linha_25" data-name="Linha 25" x2="127.12" y2="16.166" transform="translate(16.297 17.189)" fill="none" stroke="#e0e0e0" stroke-miterlimit="10" stroke-width="1"/>
            <line id="Linha_26" data-name="Linha 26" x2="127.12" y2="16.166" transform="translate(15.211 25.732)" fill="none" stroke="#e0e0e0" stroke-miterlimit="10" stroke-width="1"/>
            <line id="Linha_27" data-name="Linha 27" x2="127.12" y2="16.166" transform="translate(14.124 34.276)" fill="none" stroke="#e0e0e0" stroke-miterlimit="10" stroke-width="1"/>
            <line id="Linha_28" data-name="Linha 28" x2="127.12" y2="16.166" transform="translate(13.038 42.819)" fill="none" stroke="#e0e0e0" stroke-miterlimit="10" stroke-width="1"/>
            <line id="Linha_29" data-name="Linha 29" x2="127.12" y2="16.166" transform="translate(11.951 51.362)" fill="none" stroke="#e0e0e0" stroke-miterlimit="10" stroke-width="1"/>
            <line id="Linha_30" data-name="Linha 30" x2="127.12" y2="16.166" transform="translate(10.865 59.906)" fill="none" stroke="#e0e0e0" stroke-miterlimit="10" stroke-width="1"/>
            <line id="Linha_31" data-name="Linha 31" x2="127.12" y2="16.166" transform="translate(9.778 68.449)" fill="none" stroke="#e0e0e0" stroke-miterlimit="10" stroke-width="1"/>
            <line id="Linha_32" data-name="Linha 32" x2="127.12" y2="16.166" transform="translate(8.692 76.992)" fill="none" stroke="#e0e0e0" stroke-miterlimit="10" stroke-width="1"/>
            <line id="Linha_33" data-name="Linha 33" x2="127.12" y2="16.166" transform="translate(7.605 85.536)" fill="none" stroke="#e0e0e0" stroke-miterlimit="10" stroke-width="1"/>
            <line id="Linha_34" data-name="Linha 34" x2="127.12" y2="16.166" transform="translate(6.519 94.079)" fill="none" stroke="#e0e0e0" stroke-miterlimit="10" stroke-width="1"/>
            <line id="Linha_35" data-name="Linha 35" x2="127.12" y2="16.166" transform="translate(5.432 102.622)" fill="none" stroke="#e0e0e0" stroke-miterlimit="10" stroke-width="1"/>
            <line id="Linha_36" data-name="Linha 36" x2="127.12" y2="16.166" transform="translate(4.346 111.166)" fill="#455a64"/>
            <line id="Linha_37" data-name="Linha 37" x2="127.12" y2="16.166" transform="translate(3.259 119.709)" fill="none" stroke="#e0e0e0" stroke-miterlimit="10" stroke-width="1"/>
            <line id="Linha_38" data-name="Linha 38" x2="127.12" y2="16.166" transform="translate(2.173 128.253)" fill="none" stroke="#e0e0e0" stroke-miterlimit="10" stroke-width="1"/>
            <line id="Linha_39" data-name="Linha 39" x2="127.12" y2="16.166" transform="translate(1.086 136.796)" fill="none" stroke="#e0e0e0" stroke-miterlimit="10" stroke-width="1"/>
            <line id="Linha_40" data-name="Linha 40" x2="127.12" y2="16.166" transform="translate(0 145.339)" fill="none" stroke="#e0e0e0" stroke-miterlimit="10" stroke-width="1"/>
          </g>
          <path id="Caminho_601" data-name="Caminho 601" d="M21.774,0,0,171.222" transform="translate(24.604 6.271)" fill="none" stroke="#7fb7fe" stroke-width="1"/>
          <g id="Grupo_814" data-name="Grupo 814" transform="translate(0 8.616)">
            <path id="Caminho_524" data-name="Caminho 524" d="M225.221,69.412a2.614,2.614,0,1,1-2.264-2.924A2.614,2.614,0,0,1,225.221,69.412Z" transform="translate(-187.972 -64.646)" fill="#455a64"/>
            <path id="Caminho_525" data-name="Caminho 525" d="M221.245,100.678a2.614,2.614,0,1,1-2.264-2.924A2.614,2.614,0,0,1,221.245,100.678Z" transform="translate(-186.421 -76.848)" fill="#455a64"/>
            <path id="Caminho_526" data-name="Caminho 526" d="M217.269,131.943a2.615,2.615,0,1,1-2.264-2.923A2.614,2.614,0,0,1,217.269,131.943Z" transform="translate(-184.869 -89.05)" fill="#455a64"/>
            <path id="Caminho_527" data-name="Caminho 527" d="M213.293,163.209a2.615,2.615,0,1,1-2.264-2.924A2.615,2.615,0,0,1,213.293,163.209Z" transform="translate(-183.317 -101.252)" fill="#455a64"/>
            <path id="Caminho_528" data-name="Caminho 528" d="M209.317,194.475a2.615,2.615,0,1,1-2.264-2.924A2.615,2.615,0,0,1,209.317,194.475Z" transform="translate(-181.765 -113.454)" fill="#455a64"/>
            <path id="Caminho_529" data-name="Caminho 529" d="M205.341,225.741a2.615,2.615,0,1,1-2.264-2.924A2.615,2.615,0,0,1,205.341,225.741Z" transform="translate(-180.213 -125.656)" fill="#455a64"/>
            <path id="Caminho_530" data-name="Caminho 530" d="M201.365,257.006a2.615,2.615,0,1,1-2.264-2.924A2.615,2.615,0,0,1,201.365,257.006Z" transform="translate(-178.662 -137.858)" fill="#455a64"/>
            <path id="Caminho_531" data-name="Caminho 531" d="M197.389,288.272a2.615,2.615,0,1,1-2.264-2.924A2.615,2.615,0,0,1,197.389,288.272Z" transform="translate(-177.11 -150.06)" fill="#455a64"/>
            <path id="Caminho_532" data-name="Caminho 532" d="M193.413,319.538a2.615,2.615,0,1,1-2.264-2.924A2.615,2.615,0,0,1,193.413,319.538Z" transform="translate(-175.558 -162.262)" fill="#455a64"/>
            <g id="Grupo_812" data-name="Grupo 812">
              <path id="Caminho_533" data-name="Caminho 533" d="M204.181,75.814c-.009.032-.108.03-.29,0a4.585,4.585,0,0,1-.786-.211,5.706,5.706,0,0,1-2.436-1.782,6.31,6.31,0,0,1-1-1.874,7.813,7.813,0,0,1-.4-2.4,5.8,5.8,0,0,1,.546-2.69,5.978,5.978,0,0,1,1.974-2.184,6.881,6.881,0,0,1,2.711-1.083,8.279,8.279,0,0,1,2.688,0,10.918,10.918,0,0,1,4.138,1.641,14.93,14.93,0,0,1,2.316,1.841c.5.487.735.792.693.84s-.368-.16-.93-.554a26.164,26.164,0,0,0-2.424-1.548,11.276,11.276,0,0,0-3.921-1.352,7.769,7.769,0,0,0-2.4.048,6.152,6.152,0,0,0-2.34.952,5.193,5.193,0,0,0-1.682,1.829,5.105,5.105,0,0,0-.494,2.262,7.393,7.393,0,0,0,.271,2.155,5.98,5.98,0,0,0,.789,1.713,5.633,5.633,0,0,0,1.058,1.156,7.052,7.052,0,0,0,.993.688c.288.173.535.267.69.365S204.19,75.783,204.181,75.814Z" transform="translate(-179.878 -63.481)" fill="#2f3539"/>
              <path id="Caminho_534" data-name="Caminho 534" d="M200.205,107.08c-.009.031-.108.03-.291,0a4.594,4.594,0,0,1-.785-.211,5.707,5.707,0,0,1-2.437-1.782,6.308,6.308,0,0,1-1-1.874,7.807,7.807,0,0,1-.4-2.4,5.789,5.789,0,0,1,.546-2.689,5.98,5.98,0,0,1,1.974-2.185,6.89,6.89,0,0,1,2.711-1.082,8.3,8.3,0,0,1,2.689,0,10.938,10.938,0,0,1,4.138,1.641,14.991,14.991,0,0,1,2.316,1.841c.5.487.735.792.693.84s-.367-.16-.929-.554a26.184,26.184,0,0,0-2.424-1.548,11.264,11.264,0,0,0-3.921-1.352,7.75,7.75,0,0,0-2.4.048,6.152,6.152,0,0,0-2.34.952,5.193,5.193,0,0,0-1.682,1.829,5.1,5.1,0,0,0-.5,2.262,7.4,7.4,0,0,0,.272,2.156,5.987,5.987,0,0,0,.789,1.713,5.611,5.611,0,0,0,1.058,1.155,7.01,7.01,0,0,0,.993.689c.288.173.535.267.69.365S200.214,107.049,200.205,107.08Z" transform="translate(-178.326 -75.683)" fill="#2f3539"/>
              <path id="Caminho_535" data-name="Caminho 535" d="M196.229,138.346c-.01.032-.108.03-.291,0a4.7,4.7,0,0,1-.785-.211,5.707,5.707,0,0,1-2.437-1.782,6.308,6.308,0,0,1-1-1.874,7.792,7.792,0,0,1-.4-2.4,5.789,5.789,0,0,1,.546-2.689,5.98,5.98,0,0,1,1.974-2.185,6.891,6.891,0,0,1,2.711-1.083,8.3,8.3,0,0,1,2.689,0,10.938,10.938,0,0,1,4.138,1.641,14.955,14.955,0,0,1,2.316,1.841c.5.487.735.791.693.84s-.367-.161-.929-.554a26.183,26.183,0,0,0-2.424-1.548,11.262,11.262,0,0,0-3.921-1.352,7.765,7.765,0,0,0-2.4.048,6.17,6.17,0,0,0-2.34.953,5.191,5.191,0,0,0-1.682,1.829,5.1,5.1,0,0,0-.5,2.261,7.4,7.4,0,0,0,.272,2.156,6,6,0,0,0,.789,1.713,5.612,5.612,0,0,0,1.058,1.155,7.06,7.06,0,0,0,.993.689c.288.173.535.267.69.365S196.238,138.315,196.229,138.346Z" transform="translate(-176.775 -87.884)" fill="#2f3539"/>
              <path id="Caminho_536" data-name="Caminho 536" d="M192.253,169.612c-.01.032-.108.03-.291,0a4.582,4.582,0,0,1-.785-.211,5.7,5.7,0,0,1-2.437-1.782,6.315,6.315,0,0,1-1-1.874,7.8,7.8,0,0,1-.4-2.4,5.79,5.79,0,0,1,.546-2.689,5.975,5.975,0,0,1,1.974-2.185,6.882,6.882,0,0,1,2.711-1.083,8.3,8.3,0,0,1,2.689,0,10.928,10.928,0,0,1,4.138,1.641,15,15,0,0,1,2.316,1.841c.5.488.735.792.693.84s-.367-.16-.929-.554a26.138,26.138,0,0,0-2.424-1.548,11.274,11.274,0,0,0-3.921-1.352,7.785,7.785,0,0,0-2.4.048,6.165,6.165,0,0,0-2.34.952,5.193,5.193,0,0,0-1.682,1.829,5.1,5.1,0,0,0-.5,2.262,7.4,7.4,0,0,0,.272,2.156,5.983,5.983,0,0,0,.789,1.712,5.616,5.616,0,0,0,1.058,1.156,6.968,6.968,0,0,0,.993.688c.288.173.535.267.69.365S192.263,169.58,192.253,169.612Z" transform="translate(-175.223 -100.087)" fill="#2f3539"/>
              <path id="Caminho_537" data-name="Caminho 537" d="M188.277,200.878c-.009.032-.107.03-.29,0a4.579,4.579,0,0,1-.785-.211,5.7,5.7,0,0,1-2.437-1.782,6.323,6.323,0,0,1-1-1.874,7.776,7.776,0,0,1-.4-2.4,5.784,5.784,0,0,1,.546-2.69,5.978,5.978,0,0,1,1.974-2.184,6.878,6.878,0,0,1,2.711-1.083,8.283,8.283,0,0,1,2.689,0,10.922,10.922,0,0,1,4.138,1.641,14.959,14.959,0,0,1,2.316,1.841c.5.487.735.792.693.84s-.367-.16-.929-.554a26.115,26.115,0,0,0-2.424-1.548,11.279,11.279,0,0,0-3.921-1.352,7.751,7.751,0,0,0-2.4.048,6.156,6.156,0,0,0-2.34.952,5.191,5.191,0,0,0-1.682,1.829,5.1,5.1,0,0,0-.5,2.262,7.4,7.4,0,0,0,.272,2.155,5.98,5.98,0,0,0,.789,1.713,5.615,5.615,0,0,0,1.058,1.156,7.015,7.015,0,0,0,.993.688c.288.173.535.267.69.365S188.286,200.846,188.277,200.878Z" transform="translate(-173.671 -112.289)" fill="#2f3539"/>
              <path id="Caminho_538" data-name="Caminho 538" d="M184.3,232.143c-.009.031-.108.03-.29,0a4.581,4.581,0,0,1-.785-.211,5.7,5.7,0,0,1-2.437-1.782,6.307,6.307,0,0,1-1-1.874,7.792,7.792,0,0,1-.4-2.4,5.79,5.79,0,0,1,.546-2.689A5.98,5.98,0,0,1,181.913,221a6.886,6.886,0,0,1,2.711-1.082,8.265,8.265,0,0,1,2.689,0,10.936,10.936,0,0,1,4.138,1.641,14.99,14.99,0,0,1,2.316,1.841c.5.487.735.791.693.84s-.367-.161-.929-.554a26.208,26.208,0,0,0-2.424-1.548,11.259,11.259,0,0,0-3.921-1.352,7.75,7.75,0,0,0-2.4.048,6.156,6.156,0,0,0-2.34.952,5.191,5.191,0,0,0-1.682,1.829,5.1,5.1,0,0,0-.5,2.262,7.394,7.394,0,0,0,.272,2.156,5.987,5.987,0,0,0,.789,1.713,5.6,5.6,0,0,0,1.058,1.155,6.975,6.975,0,0,0,.993.689c.288.173.535.267.69.365S184.31,232.112,184.3,232.143Z" transform="translate(-172.119 -124.49)" fill="#2f3539"/>
              <path id="Caminho_539" data-name="Caminho 539" d="M180.324,263.409c-.009.032-.108.03-.29,0a4.718,4.718,0,0,1-.786-.211,5.643,5.643,0,0,1-1.155-.6,5.582,5.582,0,0,1-1.282-1.183,6.294,6.294,0,0,1-1-1.874,7.792,7.792,0,0,1-.4-2.4,5.79,5.79,0,0,1,.546-2.689,5.974,5.974,0,0,1,1.974-2.185,6.888,6.888,0,0,1,2.711-1.083,8.3,8.3,0,0,1,2.689,0,10.939,10.939,0,0,1,4.137,1.641,14.9,14.9,0,0,1,2.316,1.841c.5.487.736.791.693.84s-.367-.161-.929-.554a26.2,26.2,0,0,0-2.424-1.548,11.259,11.259,0,0,0-3.921-1.352,7.769,7.769,0,0,0-2.4.048,6.167,6.167,0,0,0-2.34.953,5.191,5.191,0,0,0-1.682,1.829,5.1,5.1,0,0,0-.5,2.262,7.419,7.419,0,0,0,.271,2.156,6.012,6.012,0,0,0,.79,1.713,5.611,5.611,0,0,0,1.057,1.155,7.065,7.065,0,0,0,.993.689c.288.173.535.266.69.365S180.333,263.378,180.324,263.409Z" transform="translate(-170.567 -136.692)" fill="#2f3539"/>
              <path id="Caminho_540" data-name="Caminho 540" d="M176.348,294.675c-.009.032-.108.03-.29,0a4.6,4.6,0,0,1-.786-.211,5.706,5.706,0,0,1-2.436-1.782,6.3,6.3,0,0,1-1-1.874,7.814,7.814,0,0,1-.4-2.4,5.789,5.789,0,0,1,.546-2.689,5.969,5.969,0,0,1,1.974-2.185,6.878,6.878,0,0,1,2.711-1.083,8.294,8.294,0,0,1,2.688,0,10.918,10.918,0,0,1,4.138,1.641,14.929,14.929,0,0,1,2.316,1.841c.5.487.735.792.693.84s-.367-.16-.929-.554a26.067,26.067,0,0,0-2.424-1.547,11.259,11.259,0,0,0-3.921-1.352,7.79,7.79,0,0,0-2.4.048,6.166,6.166,0,0,0-2.34.952,5.2,5.2,0,0,0-1.682,1.829,5.1,5.1,0,0,0-.5,2.262,7.422,7.422,0,0,0,.271,2.156,6,6,0,0,0,.79,1.712,5.631,5.631,0,0,0,1.057,1.156,7,7,0,0,0,.993.688c.288.173.535.267.69.365S176.358,294.643,176.348,294.675Z" transform="translate(-169.016 -148.895)" fill="#2f3539"/>
              <path id="Caminho_541" data-name="Caminho 541" d="M172.372,325.94c-.009.032-.108.03-.29,0a4.581,4.581,0,0,1-.786-.211,5.7,5.7,0,0,1-2.436-1.782,6.3,6.3,0,0,1-1-1.874,7.813,7.813,0,0,1-.4-2.4,5.8,5.8,0,0,1,.546-2.69,5.984,5.984,0,0,1,1.974-2.184,6.881,6.881,0,0,1,2.711-1.083,8.279,8.279,0,0,1,2.688,0,10.928,10.928,0,0,1,4.138,1.641,14.962,14.962,0,0,1,2.316,1.841c.5.487.735.792.693.84s-.367-.16-.929-.554a26.144,26.144,0,0,0-2.424-1.548,11.272,11.272,0,0,0-3.921-1.352,7.77,7.77,0,0,0-2.4.048,6.152,6.152,0,0,0-2.34.952,5.2,5.2,0,0,0-1.682,1.829,5.1,5.1,0,0,0-.494,2.262,7.414,7.414,0,0,0,.271,2.155,6,6,0,0,0,.789,1.713,5.633,5.633,0,0,0,1.058,1.156,7.052,7.052,0,0,0,.993.688c.288.173.535.267.69.365S172.382,325.909,172.372,325.94Z" transform="translate(-167.464 -161.097)" fill="#2f3539"/>
            </g>
          </g>
          <rect id="Retângulo_200" data-name="Retângulo 200" width="8.859" height="14.834" transform="translate(152.691 49.577) rotate(-82.753)" fill="#407bff"/>
          <g id="Grupo_815" data-name="Grupo 815" transform="translate(49.776 35.573)">
            <path id="Caminho_551" data-name="Caminho 551" d="M341.578,119.531a1.381,1.381,0,0,1-.244-.016l-.712-.079-2.735-.332-10.05-1.282-33.14-4.347-9.445-1.256c-3.05-.4-5.994-.818-8.8-1.157a30.814,30.814,0,0,0-7.972-.084c-2.472.346-4.808.876-6.976.616a8.261,8.261,0,0,1-2.934-.909c-.862-.451-1.612-.97-2.331-1.417a11.97,11.97,0,0,0-2.077-1.094,5.773,5.773,0,0,0-1.923-.36,3.7,3.7,0,0,0-2.53.818,4.145,4.145,0,0,0-.613.726,1.317,1.317,0,0,1,.115-.216,1.331,1.331,0,0,1,.173-.248,1.86,1.86,0,0,1,.284-.309,3.721,3.721,0,0,1,2.574-.894,5.847,5.847,0,0,1,1.975.341,12.014,12.014,0,0,1,2.118,1.085c.727.443,1.48.953,2.33,1.389a8.071,8.071,0,0,0,2.866.865c2.118.24,4.426-.293,6.915-.654a30.909,30.909,0,0,1,8.041.054c2.814.332,5.75.744,8.8,1.14l9.446,1.249,33.127,4.439,10.036,1.382,2.727.391.708.11A1.428,1.428,0,0,1,341.578,119.531Z" transform="translate(-249.099 -107.692)" fill="#263238"/>
          </g>
          <g id="Grupo_816" data-name="Grupo 816" transform="translate(52.028 45.134)">
            <path id="Caminho_552" data-name="Caminho 552" d="M340.443,134.521a1.194,1.194,0,0,1-.229-.013l-.666-.069-2.557-.3-9.4-1.144L296.6,129.106l-30.985-3.988-9.386-1.244-2.549-.354-.662-.1a1.215,1.215,0,0,1-.224-.045,1.194,1.194,0,0,1,.229.013l.666.069,2.557.3,9.4,1.144,31,3.895,30.981,3.986,9.386,1.244,2.55.354.662.1A1.193,1.193,0,0,1,340.443,134.521Z" transform="translate(-252.794 -123.372)" fill="#263238"/>
          </g>
          <g id="Grupo_817" data-name="Grupo 817" transform="translate(45.951 96.877)">
            <path id="Caminho_553" data-name="Caminho 553" d="M326.139,218.832a1.078,1.078,0,0,1-.217-.011l-.634-.065-2.431-.279-8.934-1.085-29.459-3.7L255.013,209.9l-8.921-1.185-2.423-.338-.629-.1a1.087,1.087,0,0,1-.213-.043,1.077,1.077,0,0,1,.217.011l.633.065,2.431.279,8.933,1.085,29.464,3.7,29.447,3.792,8.921,1.185,2.423.338.629.1A1.089,1.089,0,0,1,326.139,218.832Z" transform="translate(-242.827 -208.235)" fill="#263238"/>
          </g>
          <g id="Grupo_818" data-name="Grupo 818" transform="translate(43.749 114.198)">
            <path id="Caminho_554" data-name="Caminho 554" d="M322.526,247.239a1.118,1.118,0,0,1-.217-.012l-.633-.065-2.431-.279-8.934-1.085-29.459-3.7L251.4,238.307l-8.92-1.185-2.423-.338-.629-.1a1.2,1.2,0,0,1-.213-.043,1.077,1.077,0,0,1,.217.011l.633.065L242.5,237l8.933,1.085,29.464,3.7,29.447,3.791,8.921,1.185,2.424.338.629.1A1.071,1.071,0,0,1,322.526,247.239Z" transform="translate(-239.215 -236.642)" fill="#263238"/>
          </g>
          <g id="Grupo_819" data-name="Grupo 819" transform="translate(44.872 105.363)">
            <path id="Caminho_555" data-name="Caminho 555" d="M322.633,232.528a1.028,1.028,0,0,1-.212-.011l-.62-.063-2.381-.273-8.747-1.062L281.827,227.5l-28.839-3.714-8.734-1.162-2.373-.332-.616-.094a1.154,1.154,0,0,1-.209-.043,1.055,1.055,0,0,1,.213.01l.62.063,2.38.273,8.747,1.062,28.85,3.622L310.7,230.9l8.735,1.162,2.373.332.616.095A1,1,0,0,1,322.633,232.528Z" transform="translate(-241.057 -222.152)" fill="#263238"/>
          </g>
          <g id="Grupo_820" data-name="Grupo 820" transform="translate(42.767 121.917)">
            <path id="Caminho_556" data-name="Caminho 556" d="M275.017,254.064a1.724,1.724,0,0,1-.384-.017l-1.094-.109-4.015-.46-13.232-1.636-13.223-1.729-4-.56-1.086-.168a1.735,1.735,0,0,1-.376-.08,1.826,1.826,0,0,1,.384.017l1.094.109,4.015.46,13.234,1.636,13.221,1.728,4,.56,1.086.168A1.732,1.732,0,0,1,275.017,254.064Z" transform="translate(-237.604 -249.301)" fill="#263238"/>
          </g>
        </g>
        <g id="Grupo_822" data-name="Grupo 822" transform="translate(49.262 52.521)">
          <path id="Caminho_557" data-name="Caminho 557" d="M262.231,137.279c-.011.087-3.149-.24-7.006-.73s-6.978-.959-6.967-1.046,3.147.24,7.007.731S262.242,137.192,262.231,137.279Z" transform="translate(-248.257 -135.488)" fill="#263238"/>
        </g>
        <g id="Grupo_823" data-name="Grupo 823" transform="translate(50.023 88.528)">
          <path id="Caminho_558" data-name="Caminho 558" d="M329.949,204.018a.989.989,0,0,1-.21-.01l-.612-.06c-.537-.062-1.328-.144-2.35-.229s-2.271-.187-3.725-.271-3.11-.169-4.942-.249c-3.663-.163-8.03-.277-12.875-.559-2.421-.146-4.964-.332-7.588-.671-2.62-.355-5.314-.787-8.084-1.2l-28.338-4.336-8.581-1.354-2.33-.384-.605-.108a1.033,1.033,0,0,1-.2-.048,1.035,1.035,0,0,1,.209.015l.61.077,2.34.325,8.6,1.254,28.351,4.244c2.767.409,5.468.844,8.077,1.2,2.61.342,5.148.533,7.566.687,4.837.3,9.2.435,12.867.627,1.832.094,3.49.187,4.943.3s2.705.215,3.726.324,1.812.207,2.346.289l.608.091A1.031,1.031,0,0,1,329.949,204.018Z" transform="translate(-249.505 -194.542)" fill="#263238"/>
        </g>
      </g>
    </g>
    <g id="Character" transform="translate(25.486 55.383)">
      <g id="Grupo_897" data-name="Grupo 897">
        <g id="Grupo_825" data-name="Grupo 825">
          <path id="Caminho_559" data-name="Caminho 559" d="M122.085,237.732s74.614-73.776,83.1-85.465l-5.107-4.7-84.141,83.679Z" transform="translate(-97.382 -143.064)" fill="#e0e0e0"/>
          <path id="Caminho_560" data-name="Caminho 560" d="M87.461,289.128c3.358.064,12.429-1.231,25.206-14.412l11.275-10.173-8.627-8.3s17.194-15.928,16.372-16.8-9.958,7.609-17.18,13.859c-6.57,5.685-28.489,25.734-29,33.7A2,2,0,0,0,87.461,289.128Z" transform="translate(-85.506 -178.896)" fill="#407bff"/>
          <path id="Caminho_561" data-name="Caminho 561" d="M131.8,239.443c-.822-.871-9.958,7.609-17.18,13.859-.569.493-1.26,1.1-2.035,1.79l8.566,8.208L109.9,273.5c-11.571,11.985-20.109,14.176-24.1,14.436a1.985,1.985,0,0,0,1.776,1.2c3.358.064,12.429-1.231,25.206-14.412l11.275-10.173-8.627-8.3S132.624,240.315,131.8,239.443Z" transform="translate(-85.621 -178.896)" opacity="0.2"/>
          <path id="Caminho_562" data-name="Caminho 562" d="M148.975,224.342l58.807-59.106-2.49-2.291-58.708,58.874Z" transform="translate(-109.343 -149.065)" fill="#263238"/>
          <path id="Caminho_563" data-name="Caminho 563" d="M254.459,149.461s5.578-8.789,4.02-9.249-9.073,4.474-9.073,4.474l1.437,1.485-8.508,8.217,2.815,1.965,7.768-8.205Z" transform="translate(-146.711 -140.181)" fill="#455a64"/>
        </g>
        <g id="Grupo_896" data-name="Grupo 896" transform="translate(23.777 11.505)">
          <g id="Grupo_831" data-name="Grupo 831" transform="translate(8.511)">
            <g id="Grupo_829" data-name="Grupo 829" transform="translate(2.963 0.844)">
              <g id="Grupo_828" data-name="Grupo 828" transform="translate(9.864 4.27)">
                <g id="Grupo_827" data-name="Grupo 827">
                  <g id="Grupo_826" data-name="Grupo 826">
                    <path id="Caminho_564" data-name="Caminho 564" d="M164.813,200.087h0a5.486,5.486,0,0,0,5.9-5.26c.115-2.986.215-6,.215-6s4.524-.424,4.853-4.9.178-14.814.178-14.814h0a15.6,15.6,0,0,0-15.768,1.013l-.7.471.253,24.084A5.485,5.485,0,0,0,164.813,200.087Z" transform="translate(-159.496 -167.439)" fill="#ffbe9d"/>
                  </g>
                </g>
              </g>
              <path id="Caminho_565" data-name="Caminho 565" d="M162.63,160.561a7.527,7.527,0,0,0-6.461,3.889,15.638,15.638,0,0,0-1.657,7.2,136.757,136.757,0,0,0,.344,14.546,1.573,1.573,0,0,0,.312,1.024,1.944,1.944,0,0,0,1.18.444,92.126,92.126,0,0,0,24.943.038c.545-.987-.22-2.157-1.1-2.916s-1.975-1.446-2.294-2.511c-.5-1.674,1.163-3.469.514-5.1-.488-1.226-2.1-1.829-2.668-3.027-.952-2.012,1.5-4.444.415-6.4-.568-1.018-1.9-1.469-2.738-2.319a26.283,26.283,0,0,1-1.7-2.593,6.612,6.612,0,0,0-4.471-2.183,16.432,16.432,0,0,0-4.613-.1" transform="translate(-147.655 -160.435)" fill="#e8505b"/>
              <path id="Caminho_566" data-name="Caminho 566" d="M151.912,169.038a3.993,3.993,0,0,0-1.824,3.22,13.18,13.18,0,0,1-.653,3.786c-.566,1.252-1.746,2.207-2.058,3.545-.4,1.74.742,3.791-.293,5.247-.668.938-1.977,1.172-2.8,1.979-1.136,1.115-1.035,2.94-.854,4.522l14.951-.134" transform="translate(-143.319 -163.793)" fill="#e8505b"/>
            </g>
            <path id="Caminho_567" data-name="Caminho 567" d="M153.311,162.766a4.552,4.552,0,0,0-6.867-3.047c-2.389,1.476-3.233,5-5.919,5.814-.7.212-1.561.275-1.929.907a1.444,1.444,0,0,0,.78,1.877,4.188,4.188,0,0,0,2.247.18,1.429,1.429,0,0,0-1.56,1.655,1.824,1.824,0,0,0,2.056,1.312,2.54,2.54,0,0,0,1.892-1.732l-.972,2.819c1.859.327,3.444-1.348,4.386-2.983s1.8-3.547,3.538-4.276a9.812,9.812,0,0,0,2.338-.893c.665-.511.8-1.792,0-2.04" transform="translate(-138.459 -159.05)" fill="#e8505b"/>
            <g id="Grupo_830" data-name="Grupo 830" transform="translate(13.961 3.765)">
              <path id="Caminho_568" data-name="Caminho 568" d="M163.022,165.229c.016-.029.348.135.655.625a2.42,2.42,0,0,1-1.416,3.63,1.264,1.264,0,0,1-.9.016c0-.054.345-.037.833-.229a2.35,2.35,0,0,0,1.291-3.309C163.252,165.489,162.986,165.269,163.022,165.229Z" transform="translate(-161.356 -165.226)" fill="#263238"/>
            </g>
          </g>
          <path id="Caminho_569" data-name="Caminho 569" d="M190.679,396.259l7.664,35.348,10.111-.236-4.479-38.238Z" transform="translate(-150.328 -250.405)" fill="#ffbe9d"/>
          <path id="Caminho_570" data-name="Caminho 570" d="M128.8,236.725s-.172.246-.451.689c-1.625,2.58-6.2,11.831-2.344,18.02l9.669-8.5,1.634-3.819" transform="translate(-124.501 -189.364)" fill="#ffbe9d"/>
          <path id="Caminho_571" data-name="Caminho 571" d="M138.609,351.443,135.353,411.8l9.951,2.4,7.46-61.484Z" transform="translate(-128.736 -234.135)" fill="#ffbe9d"/>
          <g id="Grupo_838" data-name="Grupo 838" transform="translate(2.154 28.388)">
            <g id="Grupo_833" data-name="Grupo 833">
              <g id="Grupo_832" data-name="Grupo 832">
                <path id="Caminho_572" data-name="Caminho 572" d="M179.709,218.633l-14.028,3.384-.81,10.821,1.954,6.17c-.024.224,3.154,10.6,3.154,10.6l.984,3.432-32.06.333c-.107-3.746,2.386-7.441,2.386-7.441,1.824-3.094,1.352-7.764.5-11.309-.268-1.122-.625-2.971-.767-4.116l-.024-.2-1.835,3.228L128.034,225.5a87.364,87.364,0,0,1,9.557-14.546,13.1,13.1,0,0,1,8.26-3.029l13.841.118s10.9-1.365,17.248-2.437Z" transform="translate(-128.034 -205.608)" fill="#0f4c81"/>
              </g>
            </g>
            <g id="Grupo_834" data-name="Grupo 834" transform="translate(7.255 1.554)">
              <path id="Caminho_573" data-name="Caminho 573" d="M181.857,208.157a9.146,9.146,0,0,0-1.448,1.031c-.432.377-.913.889-1.469,1.49a14.308,14.308,0,0,1-2.051,1.9,13.061,13.061,0,0,1-6.766,2.518,12.686,12.686,0,0,1-4.288-.4c-1.449-.393-2.854-1.038-4.352-1.462a9.32,9.32,0,0,0-2.254-.375,8.735,8.735,0,0,0-2.2.257,20.8,20.8,0,0,0-3.935,1.571,31.134,31.134,0,0,1-3.557,1.56,10.355,10.355,0,0,1-8.1-.49,9.219,9.219,0,0,1-1.146-.68,2.516,2.516,0,0,1-.365-.288c.021-.031.524.373,1.565.857a10.588,10.588,0,0,0,4.7.976,10.366,10.366,0,0,0,3.26-.623,31.746,31.746,0,0,0,3.514-1.574,20.766,20.766,0,0,1,3.988-1.61,8.973,8.973,0,0,1,2.282-.271,9.579,9.579,0,0,1,2.331.385c1.53.434,2.932,1.08,4.348,1.467a12.5,12.5,0,0,0,4.183.413,12.989,12.989,0,0,0,6.655-2.407,14.629,14.629,0,0,0,2.055-1.843,18.982,18.982,0,0,1,1.518-1.461,6.211,6.211,0,0,1,1.1-.752,2.953,2.953,0,0,1,.314-.148A.339.339,0,0,1,181.857,208.157Z" transform="translate(-139.933 -208.156)" fill="#263238"/>
            </g>
            <g id="Grupo_835" data-name="Grupo 835" transform="translate(3.828 13.379)">
              <path id="Caminho_574" data-name="Caminho 574" d="M167.427,233.93a1.289,1.289,0,0,1-.279.269,2.464,2.464,0,0,1-1.023.442,3.981,3.981,0,0,1-1.762-.091,7.085,7.085,0,0,1-2.1-1.02,18.235,18.235,0,0,0-2.371-1.448,6.865,6.865,0,0,0-3.073-.56,20.043,20.043,0,0,0-6.974,2.048,24.74,24.74,0,0,1-3.623,1.26,9.543,9.543,0,0,1-3.579.255,7.546,7.546,0,0,1-3.046-1.132,10.879,10.879,0,0,1-2.163-1.818,20.425,20.425,0,0,1-2.394-3.29c-.249-.41-.434-.732-.558-.953a1.715,1.715,0,0,1-.173-.345,1.823,1.823,0,0,1,.228.312l.607.92a22.7,22.7,0,0,0,2.454,3.2,10.819,10.819,0,0,0,2.138,1.748,7.339,7.339,0,0,0,2.945,1.066,9.331,9.331,0,0,0,3.466-.268,25.017,25.017,0,0,0,3.575-1.251,19.929,19.929,0,0,1,7.088-2.048,7.067,7.067,0,0,1,3.191.613,17.661,17.661,0,0,1,2.386,1.5,7.074,7.074,0,0,0,2.02,1.036,3.958,3.958,0,0,0,1.693.14A2.919,2.919,0,0,0,167.427,233.93Z" transform="translate(-134.312 -227.55)" fill="#263238"/>
            </g>
            <g id="Grupo_836" data-name="Grupo 836" transform="translate(14.555 28.058)">
              <path id="Caminho_575" data-name="Caminho 575" d="M174.763,253.684c.008.007-.046.074-.159.2a3.529,3.529,0,0,1-.546.477,5.251,5.251,0,0,1-2.507.884,9.115,9.115,0,0,1-3.908-.529c-1.412-.482-2.854-1.248-4.419-1.884a10.582,10.582,0,0,0-4.608-.894,10.366,10.366,0,0,0-3.739.9,12.785,12.785,0,0,0-2.971,1.983c-.008-.007.046-.076.156-.2a5.536,5.536,0,0,1,.51-.511,9.4,9.4,0,0,1,2.209-1.477,10.241,10.241,0,0,1,3.819-.991,10.651,10.651,0,0,1,4.742.891c1.588.647,3.018,1.416,4.4,1.9a9.165,9.165,0,0,0,3.791.582,5.42,5.42,0,0,0,2.458-.763C174.507,253.922,174.739,253.659,174.763,253.684Z" transform="translate(-151.906 -251.624)" fill="#263238"/>
            </g>
            <g id="Grupo_837" data-name="Grupo 837" transform="translate(13.951 38.495)">
              <path id="Caminho_576" data-name="Caminho 576" d="M177.806,270.323c-.02.027-.326-.225-.952-.545A7.765,7.765,0,0,0,174,269.02a12.841,12.841,0,0,0-4.367.476c-1.613.426-3.325,1.116-5.182,1.7a16.491,16.491,0,0,1-5.417.853,15.458,15.458,0,0,1-4.422-.724,14.416,14.416,0,0,1-2.771-1.2c-.313-.171-.543-.326-.7-.43s-.234-.165-.228-.174c.015-.026.351.18.984.5a16.493,16.493,0,0,0,2.778,1.094,15.913,15.913,0,0,0,4.361.646,16.651,16.651,0,0,0,5.319-.863c1.838-.579,3.561-1.265,5.2-1.681a12.642,12.642,0,0,1,4.461-.417,7.415,7.415,0,0,1,2.893.873,4.926,4.926,0,0,1,.682.461C177.741,270.249,177.814,270.315,177.806,270.323Z" transform="translate(-150.914 -268.742)" fill="#263238"/>
            </g>
          </g>
          <g id="Grupo_841" data-name="Grupo 841" transform="translate(6.928 74.948)">
            <path id="Caminho_577" data-name="Caminho 577" d="M142.009,281.969l-6.145,70.477,15.184.09,7.5-56.483,9.795,57,15.193-2.8-9.311-67.682Z" transform="translate(-135.863 -281.969)" fill="#263238"/>
            <g id="Grupo_840" data-name="Grupo 840" transform="translate(10.272 12.231)">
              <g id="Grupo_839" data-name="Grupo 839">
                <path id="Caminho_578" data-name="Caminho 578" d="M176,302.038c.01.087-5.2.776-11.627,1.538s-11.654,1.31-11.665,1.223,5.194-.776,11.628-1.538S175.992,301.951,176,302.038Z" transform="translate(-152.711 -302.029)" fill="#455a64"/>
              </g>
            </g>
          </g>
          <g id="Grupo_892" data-name="Grupo 892" transform="translate(47.945 180.872)">
            <g id="Grupo_891" data-name="Grupo 891">
              <g id="Grupo_846" data-name="Grupo 846" transform="translate(0.07)">
                <g id="Grupo_843" data-name="Grupo 843">
                  <g id="Grupo_842" data-name="Grupo 842">
                    <path id="Caminho_579" data-name="Caminho 579" d="M214.739,456.821l-.043-1.13-11.448.33.1,3.727.708.024c3.15.077,16.023.189,18.106-.46C224.485,458.588,214.739,456.821,214.739,456.821Z" transform="translate(-203.248 -455.691)" fill="#e8505b"/>
                  </g>
                </g>
                <g id="Grupo_845" data-name="Grupo 845" transform="translate(0.016 0.925)" opacity="0.6">
                  <g id="Grupo_844" data-name="Grupo 844">
                    <path id="Caminho_580" data-name="Caminho 580" d="M207.487,460.146a3.657,3.657,0,0,0-1.524-2.22,4.055,4.055,0,0,0-2.688-.7l.09,2.961Z" transform="translate(-203.275 -457.207)" fill="#fff"/>
                  </g>
                </g>
              </g>
              <g id="Grupo_848" data-name="Grupo 848" transform="translate(0.168 2.151)" opacity="0.6">
                <g id="Grupo_847" data-name="Grupo 847">
                  <path id="Caminho_581" data-name="Caminho 581" d="M219.569,459.218s3.422.819,3.015,1.35-13.42.873-19.174.557l.011-.237,15.182-.279S218.906,459.261,219.569,459.218Z" transform="translate(-203.41 -459.218)" fill="#fff"/>
                </g>
              </g>
              <g id="Grupo_851" data-name="Grupo 851" transform="translate(0 3.32)">
                <g id="Grupo_850" data-name="Grupo 850">
                  <g id="Grupo_849" data-name="Grupo 849">
                    <path id="Caminho_582" data-name="Caminho 582" d="M203.134,461.634a1.038,1.038,0,0,0,.2.015l.563.017,2.074.028c1.751.013,4.171,0,6.842-.068s5.089-.18,6.838-.282l2.069-.134.562-.046a.1.1,0,1,0,0-.026l-.563.021-2.071.094c-1.749.079-4.165.176-6.836.244s-5.088.1-6.839.106l-2.074.012-.564.007A1.189,1.189,0,0,0,203.134,461.634Z" transform="translate(-203.134 -461.136)" fill="#263238"/>
                  </g>
                </g>
              </g>
              <g id="Grupo_854" data-name="Grupo 854" transform="translate(15.339 2.018)">
                <g id="Grupo_853" data-name="Grupo 853">
                  <g id="Grupo_852" data-name="Grupo 852">
                    <path id="Caminho_583" data-name="Caminho 583" d="M228.316,460.688a4.128,4.128,0,0,1,.359-.929,4.449,4.449,0,0,1,.684-.756,1.513,1.513,0,0,0-.8.692A1.339,1.339,0,0,0,228.316,460.688Z" transform="translate(-228.292 -459)" fill="#263238"/>
                  </g>
                </g>
              </g>
              <g id="Grupo_857" data-name="Grupo 857" transform="translate(11.946 1.31)">
                <g id="Grupo_856" data-name="Grupo 856">
                  <g id="Grupo_855" data-name="Grupo 855">
                    <path id="Caminho_584" data-name="Caminho 584" d="M222.732,458.738c.033.018.188-.168.348-.416s.261-.464.228-.482-.188.168-.347.416S222.7,458.719,222.732,458.738Z" transform="translate(-222.726 -457.839)" fill="#263238"/>
                  </g>
                </g>
              </g>
              <g id="Grupo_860" data-name="Grupo 860" transform="translate(11.012 1.163)">
                <g id="Grupo_859" data-name="Grupo 859">
                  <g id="Grupo_858" data-name="Grupo 858">
                    <path id="Caminho_585" data-name="Caminho 585" d="M221.2,458.215c.027.026.2-.091.395-.26s.325-.327.3-.353-.2.091-.394.26S221.172,458.189,221.2,458.215Z" transform="translate(-221.195 -457.598)" fill="#263238"/>
                  </g>
                </g>
              </g>
              <g id="Grupo_863" data-name="Grupo 863" transform="translate(10.402 0.72)">
                <g id="Grupo_862" data-name="Grupo 862">
                  <g id="Grupo_861" data-name="Grupo 861">
                    <path id="Caminho_586" data-name="Caminho 586" d="M220.194,456.946a2.788,2.788,0,1,0,.594-.074A1.414,1.414,0,0,0,220.194,456.946Z" transform="translate(-220.194 -456.872)" fill="#263238"/>
                  </g>
                </g>
              </g>
              <g id="Grupo_866" data-name="Grupo 866" transform="translate(10.18 0.082)">
                <g id="Grupo_865" data-name="Grupo 865">
                  <g id="Grupo_864" data-name="Grupo 864">
                    <path id="Caminho_587" data-name="Caminho 587" d="M219.83,455.838a1.222,1.222,0,0,0,.669.162,1.236,1.236,0,0,0,.683-.1,57.11,57.11,0,0,1-1.352-.059Z" transform="translate(-219.829 -455.826)" fill="#263238"/>
                  </g>
                </g>
              </g>
              <g id="Grupo_869" data-name="Grupo 869" transform="translate(12.311 0.283)">
                <g id="Grupo_868" data-name="Grupo 868">
                  <g id="Grupo_867" data-name="Grupo 867">
                    <path id="Caminho_588" data-name="Caminho 588" d="M223.324,457.146a2.264,2.264,0,0,0,.732-.023,4.534,4.534,0,0,0,.775-.18,2.219,2.219,0,0,0,.441-.183.373.373,0,0,0,.174-.216.26.26,0,0,0-.119-.269,1.4,1.4,0,0,0-1.65.409,1.175,1.175,0,0,0-.225.46c-.026.117-.022.184-.013.185a1.868,1.868,0,0,1,.316-.59,1.321,1.321,0,0,1,.614-.395,1.215,1.215,0,0,1,.875.032c.118.077.077.205-.05.28a2.3,2.3,0,0,1-.407.174,5.413,5.413,0,0,1-.749.2C223.6,457.117,223.323,457.125,223.324,457.146Z" transform="translate(-223.324 -456.155)" fill="#263238"/>
                  </g>
                </g>
              </g>
              <g id="Grupo_872" data-name="Grupo 872" transform="translate(11.514 0.003)">
                <g id="Grupo_871" data-name="Grupo 871">
                  <g id="Grupo_870" data-name="Grupo 870">
                    <path id="Caminho_589" data-name="Caminho 589" d="M223,457a.629.629,0,0,0,.07-.474,1.077,1.077,0,0,0-.215-.493.746.746,0,0,0-.62-.331.271.271,0,0,0-.216.321.708.708,0,0,0,.134.3,2.085,2.085,0,0,0,.359.4,1.075,1.075,0,0,0,.427.265c.012-.017-.15-.118-.359-.329a2.408,2.408,0,0,1-.319-.4c-.1-.141-.182-.4,0-.434a.665.665,0,0,1,.491.276,1.087,1.087,0,0,1,.22.437A2.287,2.287,0,0,1,223,457Z" transform="translate(-222.017 -455.696)" fill="#263238"/>
                  </g>
                </g>
              </g>
              <g id="Grupo_875" data-name="Grupo 875" transform="translate(0.144 0.825)">
                <g id="Grupo_874" data-name="Grupo 874">
                  <g id="Grupo_873" data-name="Grupo 873">
                    <path id="Caminho_590" data-name="Caminho 590" d="M203.371,457.132c0,.024.326-.038.843.005a3.854,3.854,0,0,1,1.858.655,3.452,3.452,0,0,1,1.194,1.478c.188.449.214.754.24.751a.563.563,0,0,0-.006-.214,2.627,2.627,0,0,0-.141-.568,3.291,3.291,0,0,0-1.2-1.55,3.7,3.7,0,0,0-1.935-.643,3.215,3.215,0,0,0-.626.031A.7.7,0,0,0,203.371,457.132Z" transform="translate(-203.371 -457.044)" fill="#263238"/>
                  </g>
                </g>
              </g>
              <g id="Grupo_878" data-name="Grupo 878" transform="translate(5.701 2.723)">
                <g id="Grupo_877" data-name="Grupo 877">
                  <g id="Grupo_876" data-name="Grupo 876">
                    <path id="Caminho_591" data-name="Caminho 591" d="M212.484,460.226a6.9,6.9,0,0,0,1.668.11,6.973,6.973,0,0,0,1.663-.168c0-.037-.748.024-1.666.039S212.487,460.189,212.484,460.226Z" transform="translate(-212.484 -460.157)" fill="#263238"/>
                  </g>
                </g>
              </g>
              <g id="Grupo_881" data-name="Grupo 881" transform="translate(3.462 2.844)">
                <g id="Grupo_880" data-name="Grupo 880">
                  <g id="Grupo_879" data-name="Grupo 879">
                    <path id="Caminho_592" data-name="Caminho 592" d="M208.817,460.359c-.027.027.066.145.146.3s.127.3.166.293.054-.169-.041-.349S208.841,460.333,208.817,460.359Z" transform="translate(-208.812 -460.355)" fill="#263238"/>
                  </g>
                </g>
              </g>
              <g id="Grupo_884" data-name="Grupo 884" transform="translate(2.591 1.891)">
                <g id="Grupo_883" data-name="Grupo 883">
                  <g id="Grupo_882" data-name="Grupo 882">
                    <path id="Caminho_593" data-name="Caminho 593" d="M207.388,458.8c-.026.026.051.134.172.242s.241.175.267.149-.05-.134-.171-.242S207.414,458.772,207.388,458.8Z" transform="translate(-207.383 -458.792)" fill="#263238"/>
                  </g>
                </g>
              </g>
              <g id="Grupo_887" data-name="Grupo 887" transform="translate(1.377 1.417)">
                <g id="Grupo_886" data-name="Grupo 886">
                  <g id="Grupo_885" data-name="Grupo 885">
                    <path id="Caminho_594" data-name="Caminho 594" d="M205.393,458.081c.009.036.161.031.33.081s.292.13.321.1-.071-.168-.281-.227S205.38,458.049,205.393,458.081Z" transform="translate(-205.392 -458.015)" fill="#263238"/>
                  </g>
                </g>
              </g>
              <g id="Grupo_890" data-name="Grupo 890" transform="translate(0.512 1.269)">
                <g id="Grupo_889" data-name="Grupo 889">
                  <g id="Grupo_888" data-name="Grupo 888">
                    <path id="Caminho_595" data-name="Caminho 595" d="M203.976,457.8c-.013.034.054.086.149.118s.184.03.2,0-.054-.086-.15-.118S203.989,457.766,203.976,457.8Z" transform="translate(-203.974 -457.773)" fill="#263238"/>
                  </g>
                </g>
              </g>
            </g>
          </g>
          <g id="Grupo_895" data-name="Grupo 895" transform="translate(4.626 177.144)">
            <path id="Caminho_596" data-name="Caminho 596" d="M133.783,449.577l-1.695,7.455H143.54l.49-4.853Z" transform="translate(-132.089 -449.577)" fill="#e8505b"/>
            <g id="Grupo_893" data-name="Grupo 893" transform="translate(0.311 5.997)">
              <path id="Caminho_597" data-name="Caminho 597" d="M143.973,459.788a8.061,8.061,0,0,1-1.669.1c-1.031.011-2.455-.016-4.024-.074l-4.018-.171a9.407,9.407,0,0,1-1.664-.134,8.1,8.1,0,0,1,1.668-.091c1.031-.009,2.455.02,4.025.078l4.018.166A9.523,9.523,0,0,1,143.973,459.788Z" transform="translate(-132.598 -459.412)" fill="#263238"/>
            </g>
            <g id="Grupo_894" data-name="Grupo 894" transform="translate(6.445 1.453)">
              <path id="Caminho_598" data-name="Caminho 598" d="M143.048,451.96a18.309,18.309,0,0,1-.324,4.807,18.375,18.375,0,0,1,.324-4.807Z" transform="translate(-142.66 -451.96)" fill="#263238"/>
            </g>
            <path id="Caminho_599" data-name="Caminho 599" d="M132.089,460.93H143.54l.109-1.083-11.354-.283-.206,1.236" transform="translate(-132.089 -453.475)" fill="#fff" opacity="0.6"/>
          </g>
          <path id="Caminho_600" data-name="Caminho 600" d="M235.277,166.156l-4.176,1.506c-.06-1.672-1.2-3.414-1.2-2.577s-.4,5.154-.4,5.154L220.8,185.393a7.477,7.477,0,0,1-4.961,4.07l-7.145,1.53,2.008,9.444,9.956-2.458a8.4,8.4,0,0,0,5.736-4.919l8.283-19.855a31.665,31.665,0,0,0,1.4-3.931A3.883,3.883,0,0,0,235.277,166.156Z" transform="translate(-157.358 -161.321)" fill="#ffbe9d"/>
        </g>
      </g>
    </g>
  </g>
</svg>
